<svg xmlns="http://www.w3.org/2000/svg" width="300" height="300"><path fill="#7C26C1" d="M150 0C67.157 0 0 67.158 0 150c0 82.843 67.157 150 150 150s150-67.157 150-150C300 67.158 232.843 0 150 0zm69.149 78.787v150.86h-35.543V121.449l-32.025 32.025-.004-.008-1.469 1.47-33.638-33.638v107.558H80.928V77.21h.039c.609-9.264 8.315-16.588 17.733-16.588 4.817 0 9.187 1.917 12.387 5.03l.178.177 38.85 38.848 37.391-37.394c3.259-4.061 8.261-6.661 13.872-6.661 9.815 0 17.771 7.957 17.771 17.771 0 .131 0 .263-.004.393h.004z"/></svg>