<?xml version="1.0" encoding="UTF-8" standalone="no"?>
<!DOCTYPE svg PUBLIC "-//W3C//DTD SVG 1.1//EN" "http://www.w3.org/Graphics/SVG/1.1/DTD/svg11.dtd">
<svg width="100%" height="100%" viewBox="0 0 150 150" version="1.1" xmlns="http://www.w3.org/2000/svg" xmlns:xlink="http://www.w3.org/1999/xlink" xml:space="preserve" xmlns:serif="http://www.serif.com/" style="fill-rule:evenodd;clip-rule:evenodd;stroke-linejoin:round;stroke-miterlimit:2;">
    <g id="Chaotic" transform="matrix(1.58974,0,0,1.58974,-46.9357,-42.2458)">
        <g>
            <path d="M74.508,107.809C57.285,107.809 43.273,93.797 43.273,76.574L43.273,75.629L44.077,75.132L120.493,27.953L122.273,30.837L46.677,77.509C47.172,92.433 59.467,104.42 74.508,104.42C89.863,104.42 102.356,91.928 102.356,76.573L105.745,76.573C105.744,93.797 91.732,107.809 74.508,107.809Z" style="fill-rule:nonzero;"/>
            <path d="M74.477,119.78C50.522,119.78 31.034,100.291 31.034,76.336L34.423,76.336C34.423,98.423 52.392,116.392 74.478,116.392C96.565,116.392 114.534,98.423 114.534,76.336L117.923,76.336C117.921,100.291 98.432,119.78 74.477,119.78Z" style="fill-rule:nonzero;"/>
        </g>
    </g>
</svg>
