<?xml version="1.0" encoding="UTF-8" standalone="no"?>
<!DOCTYPE svg PUBLIC "-//W3C//DTD SVG 1.1//EN" "http://www.w3.org/Graphics/SVG/1.1/DTD/svg11.dtd">
<svg width="100%" height="100%" viewBox="0 0 512 512" version="1.1" xmlns="http://www.w3.org/2000/svg" xmlns:xlink="http://www.w3.org/1999/xlink" xml:space="preserve" xmlns:serif="http://www.serif.com/" style="fill-rule:evenodd;clip-rule:evenodd;stroke-linejoin:round;stroke-miterlimit:2;">
       <style>
        path, circle {
            fill: black;
        }
        @media (prefers-color-scheme: dark) {
            path, circle { fill: white; }
        }
    </style>
    <path d="M127.193,242.098C127.863,267.694 128.348,334.044 127.919,357.962C127.873,360.507 125.999,362.576 124.062,364.792C120.602,368.753 116.164,372.517 112.255,376.36C104.643,383.843 99.28,391.993 99.38,400.59C99.489,410.034 104.642,417.72 113.534,423.084C123.345,429.002 138.39,431.949 152.881,431.666C168.678,431.357 181.498,428.581 190.538,423.863C202.035,417.863 208.268,408.82 208.882,397.365C209.291,389.735 209.202,339.97 209.143,318.279C209.143,318.279 282.458,318.57 282.458,318.57C288.187,324.227 301.22,336.702 313.745,345.913C326.601,355.367 339.122,358.14 347.718,358.736C347.77,361.15 347.754,363.881 347.593,366.721C346.583,367.697 342.028,372.079 338.879,374.804C330.753,381.839 323.817,390.453 324.032,400.763C324.236,410.546 329.92,418.377 339.355,423.658C349.822,429.516 365.443,432.083 378.866,431.552C404.01,430.558 416.705,423.231 423.332,416.825C432.314,408.141 432.276,399.528 432.276,399.528C432.287,399.322 432.292,399.116 432.291,398.909C432.291,398.909 431.503,281.173 431.305,251.663C443.021,245.695 465.523,229.43 470.888,190.966C475.098,160.789 464.903,135.218 455.248,126.729C450.501,122.556 445.429,121.225 440.906,121.87C437.47,122.36 434.074,123.967 431.092,127.256C422.79,136.413 386.608,174.707 376.006,185.919C355.694,186.058 268.624,186.628 242.326,186.335C229.095,186.188 220.04,182.878 214.33,177.498C209.215,172.679 207.067,166.348 206.702,160.341C206.263,153.109 209.378,146.942 211.807,140.692C215.486,131.224 218.195,121.703 215.43,110.766C212.753,100.178 207.521,93.652 201.585,89.785C187.737,80.764 168.187,86.576 158.551,96.245C155.663,99.143 153.371,102.274 151.202,105.023C150.481,105.936 149.245,107.213 148.705,107.756C148.296,107.555 148.063,107.062 147.744,106.673C147.017,105.786 146.367,104.768 145.726,103.702C143.597,100.165 141.614,96.215 139.207,92.836C133.19,84.388 125.216,78.575 111.084,82.096C96.924,85.624 90.438,95.02 87.533,105.994C85.637,113.158 85.558,121.114 85.36,127.672L85.36,127.672C76.14,139.51 60.722,159.774 50.293,174.92C38.611,191.887 38.593,205.808 42.873,216.273C49.454,232.368 67.875,240.899 78.551,241.479C97.411,242.504 116.111,242.129 127.193,242.098ZM416.27,236.417C416.926,236.04 417.632,235.733 418.379,235.508C418.379,235.508 445.737,226.502 451.08,188.203C453.338,172.016 450.725,157.461 446.31,148.154C445.543,146.538 444.327,144.804 443.327,143.505C429.587,158.391 387.605,202.762 387.605,202.762C385.733,204.74 383.136,205.869 380.413,205.889C380.413,205.889 373.902,205.935 363.636,206.001C361.127,209.333 361.665,216.721 357.818,232.93C352.623,254.814 333.331,266.215 302.797,266.443C284.099,266.583 266.334,255.715 255.761,244.489C247.302,235.508 240.382,220.467 239.293,215.647C238.186,210.739 236.361,207.747 234.369,205.929C218.817,204.433 207.984,198.998 200.615,192.054C191.487,183.453 187.39,172.274 186.739,161.553C186.223,153.046 188.524,145.419 191.376,138.02C194.163,130.79 198.138,123.965 196.04,115.668C194.913,111.208 193.169,108.172 190.669,106.543C184.828,102.738 176.781,106.285 172.717,110.363C168.797,114.296 166.143,118.748 163.146,121.7C159.215,125.573 154.824,127.795 149.338,127.853C139.212,127.959 132.698,121.247 127.487,112.13C126.137,109.768 124.835,107.271 123.324,105.027C121.723,102.649 119.793,100.538 115.919,101.503C108.844,103.266 106.991,109.044 106.137,114.721C105.237,120.7 105.454,126.896 105.22,131.76C105.12,133.83 104.38,135.818 103.102,137.448C94.444,148.494 77.769,170.282 66.766,186.262C60.35,195.581 59.034,202.954 61.384,208.702C64.744,216.917 74.187,221.213 79.636,221.509C101.304,222.686 122.756,221.962 132.26,222.12C135.916,222.181 138.407,222.51 139.483,222.805C143.572,223.93 146.507,227.511 146.806,231.741C146.943,233.675 147.079,237.617 147.207,242.977C148.922,245.919 151.708,248.461 156.239,249.01C167.445,250.366 172.898,263.037 172.811,272.612C172.672,288.033 163.266,297.228 158.706,300.053C155.288,302.171 150.905,302.333 148.001,307.735C148.115,328.169 148.109,347.515 147.915,358.321C147.759,367.039 142.249,375.178 134.708,382.592C130.775,386.46 126.353,390.207 122.948,394.112C121.151,396.172 119.351,398.03 119.378,400.358C119.422,404.08 123.114,405.904 127.19,407.633C134.243,410.623 143.535,411.844 152.491,411.67C164.535,411.434 174.393,409.729 181.285,406.132C185.726,403.815 188.674,400.718 188.911,396.294C189.43,386.617 189.111,308.278 189.111,308.278C189.101,305.613 190.155,303.053 192.04,301.168C193.925,299.283 196.485,298.229 199.151,298.239L286.661,298.587C289.348,298.597 291.917,299.689 293.79,301.615C293.79,301.615 310.101,318.408 325.594,329.8C340.852,341.021 355.194,338.654 355.194,338.654C357.919,338.129 360.741,338.761 362.983,340.398C365.224,342.035 366.685,344.53 367.015,347.286C367.015,347.286 368.255,357.585 367.492,368.995C367.277,372.209 366.057,375.462 363.747,378.622C361.757,381.344 358.751,384.149 355.376,387.024C352.401,389.558 349.056,392.204 346.518,395.236C345.223,396.784 343.986,398.357 344.028,400.347C344.064,402.058 345.142,403.321 346.487,404.433C348.194,405.845 350.361,406.963 352.762,407.904C360.217,410.826 369.733,411.898 378.076,411.568C405.177,410.496 411.581,399.451 412.285,398.053L411.323,254.453C407.881,248.725 403.844,247.076 403.939,243.178C404.046,238.768 408.891,239.565 416.27,236.417Z"/>
    <g transform="matrix(1,0,0,1,0.224541,-0.663487)">
        <circle cx="129.262" cy="168.842" r="10.29"/>
    </g>
</svg>
